<svg enable-background="new 0 0 480 480" height="512" viewBox="0 0 480 480" width="512" xmlns="http://www.w3.org/2000/svg"><g fill="#444"><path d="m472 120h-48v-112c0-4.424-3.584-8-8-8h-408c-4.416 0-8 3.576-8 8v352c0 4.424 3.584 8 8 8h72v104c0 4.424 3.584 8 8 8h352c22.056 0 40-17.944 40-40v-312c0-4.424-3.584-8-8-8zm-456-104h392v48h-392zm64 112v224h-64v-272h392v40h-320c-4.416 0-8 3.576-8 8zm384 312c0 13.232-10.768 24-24 24h-344v-280h368zm0-272h-368v-32h368z"/><path d="m176 200c-35.288 0-64 28.712-64 64s28.712 64 64 64c4.416 0 8-3.576 8-8v-48h48c4.416 0 8-3.576 8-8 0-35.288-28.712-64-64-64zm0 56c-4.416 0-8 3.576-8 8v47.336c-22.672-3.824-40-23.592-40-47.336 0-26.472 21.528-48 48-48 23.744 0 43.512 17.328 47.336 40z"/><path d="m256 288h-48c-4.416 0-8 3.576-8 8v48c0 4.424 3.584 8 8 8 30.88 0 56-25.128 56-56 0-4.424-3.584-8-8-8zm-40 47.192v-31.192h31.192c-3.184 15.648-15.544 28.008-31.192 31.192z"/><path d="m112 432h328v16h-328z"/><path d="m425.248 235.712-51.36 80.712-25.088-18.824c-1.936-1.464-4.432-1.936-6.784-1.352-2.352.6-4.304 2.232-5.304 4.44l-35.744 78.64-31.976-25.576c-3.392-2.72-8.352-2.2-11.144 1.128l-35.616 42.744-34.128-20.48c-2.352-1.408-5.248-1.512-7.696-.296l-48 24 7.16 14.312 44.072-22.04 36.232 21.744c1.296.768 2.712 1.136 4.128 1.136 2.312 0 4.584-1 6.152-2.872l34.984-41.976 33.88 27.104c1.928 1.528 4.472 2.12 6.856 1.528 2.4-.576 4.4-2.224 5.424-4.472l35.88-78.936 24.024 18.024c1.776 1.336 4.032 1.896 6.232 1.472 2.192-.4 4.12-1.696 5.32-3.568l56-88z"/><path d="m256 208h56v16h-56z"/><path d="m328 208h16v16h-16z"/><path d="m360 208h16v16h-16z"/><path d="m256 240h16v16h-16z"/><path d="m288 240h16v16h-16z"/><path d="m320 240h40v16h-40z"/><path d="m32 32h16v16h-16z"/><path d="m64 32h16v16h-16z"/><path d="m96 32h16v16h-16z"/></g></svg>