<svg enable-background="new 0 0 511.999 511.999" height="512" viewBox="0 0 511.999 511.999" width="512" xmlns="http://www.w3.org/2000/svg"><g fill="#444"><path d="m291.546 329.332c-14.35 0-26.025 11.675-26.025 26.025 0 14.351 11.675 26.026 26.025 26.026 14.351 0 26.026-11.675 26.026-26.026s-11.675-26.025-26.026-26.025zm0 35.386c-5.162 0-9.36-4.2-9.36-9.361 0-5.162 4.198-9.36 9.36-9.36s9.361 4.2 9.361 9.36-4.198 9.361-9.361 9.361z"/><path d="m426.185 49.424 3.547-10.443c1.48-4.357-.852-9.089-5.208-10.57-4.353-1.48-9.09.851-10.571 5.209l-3.543 10.428c-6.099-.508-12.244.646-17.877 3.422-8.186 4.036-14.311 11.017-17.244 19.656l-32.688 96.204h-10.072l-1.703-120.87c-.158-11.239-9.429-20.383-20.67-20.383-11.239 0-20.513 9.143-20.671 20.382l-1.703 120.87h-19.087v-97.3c0-1.653-.491-3.267-1.412-4.641l-38.685-57.695c-1.547-2.308-4.141-3.693-6.92-3.693s-5.374 1.385-6.92 3.693l-38.682 57.696c-.92 1.373-1.412 2.987-1.412 4.641v97.299h-20.344c-4.603 0-8.332 3.731-8.332 8.332 0 4.602 3.73 8.332 8.332 8.332h1.676v28.1h-32.216c-29.546 0-53.582 24.036-53.582 53.582v122.133c0 29.546 24.037 53.582 53.582 53.582h32.216v26.332c0 26.619 21.657 48.276 48.276 48.276h175.645c26.619 0 48.276-21.657 48.276-48.276v-283.728h1.677c4.603 0 8.332-3.731 8.332-8.332 0-4.602-3.73-8.332-8.332-8.332h-15.104l25.221-74.222c5.131-15.118-.969-31.384-13.802-39.684zm-270.191 340.215h-29.218c-4.868 0-8.828-3.96-8.828-8.828v-116.136c0-4.867 3.96-8.828 8.828-8.828h29.218zm0-150.457h-29.218c-14.056 0-25.493 11.435-25.493 25.493v116.136c0 14.056 11.437 25.493 25.493 25.493h29.218v14.423h-32.216c-20.357 0-36.917-16.56-36.917-36.917v-122.134c0-20.357 16.56-36.917 36.917-36.917h32.216zm216.043-110.686 33.136 11.259-8.01 23.574h-36.96zm-65.89-85.802c.031-2.18 1.829-3.953 4.008-3.953 2.18 0 3.977 1.772 4.007 3.952l1.7 120.636h-11.417zm-12.67 137.3c.472.15.959.252 1.454.316v94.785c0 4.548-3.7 8.248-8.248 8.248s-8.248-3.7-8.248-8.248v-26.847c0-13.737-11.177-24.913-24.913-24.913s-24.913 11.175-24.913 24.913v52.048c0 4.548-3.701 8.248-8.249 8.248s-8.248-3.7-8.248-8.248v-120.302zm-41.449-16.665h-22.018v-81.327c7.437-.583 14.822-1.955 22.018-4.103zm-30.35-140.033 8.287 12.361c-2.663.808-5.449 1.224-8.286 1.224-2.84 0-5.626-.415-8.289-1.223zm-17.812 26.567c5.589 2.405 11.621 3.682 17.814 3.682 6.188 0 12.22-1.278 17.81-3.683l8.031 11.979c-16.816 5.082-34.871 5.082-51.688 0zm-12.539 28.036c7.196 2.149 14.58 3.52 22.018 4.103v81.326h-22.018zm220.202 385.824h-.002c0 17.43-14.181 31.611-31.611 31.611h-175.645c-17.43 0-31.611-14.181-31.611-31.611v-283.729h22.789v120.302c0 13.737 11.177 24.913 24.914 24.913 13.736 0 24.913-11.175 24.913-24.913v-52.048c0-4.548 3.7-8.248 8.248-8.248s8.248 3.7 8.248 8.248v26.847c0 13.737 11.177 24.913 24.913 24.913s24.913-11.175 24.913-24.913v-94.71l99.931-.392zm12.676-379.977-13.67 40.23-33.136-11.259 13.669-40.231c1.504-4.426 4.641-8.002 8.835-10.069 4.192-2.068 8.937-2.378 13.357-.874 9.14 3.103 14.048 13.064 10.945 22.203z"/></g></svg>