<svg enable-background="new 0 0 458.745 458.745" height="512" viewBox="0 0 458.745 458.745" width="512" xmlns="http://www.w3.org/2000/svg"><g fill="#444"><path d="m386.172 303.19c-16.701 0-30.288 13.587-30.288 30.289 0 16.701 13.587 30.288 30.288 30.288s30.288-13.587 30.288-30.288-13.587-30.289-30.288-30.289zm0 45.577c-8.43 0-15.288-6.858-15.288-15.288s6.858-15.289 15.288-15.289 15.288 6.858 15.288 15.289c0 8.429-6.858 15.288-15.288 15.288z"/><path d="m457.003 274.505c-17.591-21.089-43.408-33.184-70.831-33.184-4.595 0-9.11.343-13.526.995-3.044-19.741-21.612-45.869-39.606-67.244v-63.534c0-2.341-1.094-4.548-2.956-5.967-1.864-1.42-4.286-1.885-6.538-1.263l-12.224 3.372c-6.525 1.8-12.228 5.354-16.649 10.063l-6.421-29.535c-.75-3.448-3.801-5.907-7.329-5.907h-13.093v-10.804c0-4.142-3.357-7.5-7.5-7.5s-7.5 3.358-7.5 7.5v37.753c0 4.142 3.357 7.5 7.5 7.5s7.5-3.358 7.5-7.5v-11.949h7.048l9.238 42.495c-3.953 4.174-6.626 9.346-7.751 15.042l-21.583 23.726c-2.787 3.064-2.563 7.808.501 10.595 1.438 1.308 3.244 1.952 5.045 1.952 2.038 0 4.07-.826 5.55-2.453l13.032-14.325c.946 1.908 2.094 3.734 3.448 5.445 8.495 10.734 20.248 27.153 27.999 44.422 8.361 18.627 10.337 34.108 5.873 46.013-6.517 17.376-25.587 30.745-51.013 35.761-27.141 5.357-54.024-.354-66.888-14.207-5.667-6.103-8.205-12.161-7.759-18.52.793-11.308 10.844-24.881 29.872-40.342.023-.019 1.558-1.738 1.578-1.768 5.875-8.458 6.613-19.352 1.89-28.529-4.779-9.287-14.237-15.056-24.682-15.056h-108.214c-20.699 0-37.722 15.993-39.388 36.27-4.312 4.385-14.373 15.119-24.521 29.552-17.986 25.579-27.105 49.451-27.105 70.952 0 4.142 3.357 7.5 7.5 7.5h16.016 9.65c-.015.551-.035 1.101-.035 1.652 0 33.784 27.485 61.269 61.269 61.269 28.427 0 52.391-19.462 59.276-45.761h173.22c6.886 26.298 30.849 45.761 59.276 45.761 33.784 0 61.27-27.485 61.27-61.269 0-12.38-3.703-23.906-10.042-33.552l18.518-14.751c1.579-1.258 2.584-3.099 2.789-5.106.203-2.009-.411-4.015-1.704-5.564zm-301.288-71.954h43.513c4.873 0 9.114 2.587 11.344 6.92 1.672 3.248 1.888 6.845.699 10.113h-55.556zm-64.701 0h49.701v17.033h-73.063c3.177-9.87 12.449-17.033 23.362-17.033zm3.385 177.197c-25.513 0-46.269-20.756-46.269-46.269 0-.552.016-1.103.035-1.652h15.991c-.029.548-.046 1.099-.046 1.652 0 16.702 13.587 30.289 30.288 30.289s30.289-13.587 30.289-30.289c0-.553-.017-1.104-.046-1.652h15.992c.019.55.035 1.1.035 1.652.001 25.512-20.756 46.269-46.269 46.269zm-15.288-46.269c0-.556.033-1.107.091-1.652h30.395c.059.545.091 1.096.091 1.652 0 8.43-6.858 15.289-15.289 15.289-8.429 0-15.288-6.859-15.288-15.289zm64.508-16.653h-110.193c2.48-7.17 7.068-17.701 14.978-27.849 18.106-23.232 44.589-33.798 78.692-31.398 15.116 1.063 24.613 5.046 28.229 11.839 4.725 8.881.786 24.82-11.706 47.408zm150.407 17.161h-138.37c.001-.17.013-.338.013-.508 0-2.277-.138-4.546-.386-6.786 11.612-20.377 23.176-45.731 13.282-64.321-6.204-11.659-19.803-18.306-40.417-19.755-49.421-3.476-77.299 18.568-91.987 37.672-10.867 14.132-16.18 28.598-18.491 36.539h-2.223c4.271-36.595 37.897-73.257 46.645-82.242h134.131c-13.002 13.279-19.779 25.68-20.616 37.613-.742 10.577 3.204 20.595 11.729 29.776 16.521 17.792 48.231 25.138 80.783 18.716 10.553-2.082 20.231-5.461 28.726-9.909-1.847 7.264-2.832 14.868-2.832 22.698.001.168.012.337.013.507zm21.284-211.847 2.729-.753v36.686c-7.712-8.365-14.258-14.95-17.953-18.589 1.164-8.186 7.089-15.1 15.224-17.344zm-21.192 48.328c-2.605-3.291-3.753-7.403-3.231-11.578.249-2 .865-3.892 1.805-5.604 21.769 21.912 63.111 68.162 65.292 92.45-8.806 2.836-17.037 6.962-24.471 12.157.423-19.546-8.139-47.932-39.395-87.425zm92.054 209.28c-25.513 0-46.27-20.756-46.27-46.269s20.757-46.269 46.27-46.269 46.27 20.756 46.27 46.269-20.757 46.269-46.27 46.269zm41.524-91.27c-10.926-10.09-25.515-16.269-41.524-16.269-33.784 0-61.27 27.485-61.27 61.269 0 .17.011.338.013.508h-15.89c-.001-.17-.012-.338-.012-.508 0-42.545 34.613-77.158 77.158-77.158 20.385 0 39.713 7.985 54.104 22.137z"/></g></svg>