<svg enable-background="new 0 0 480 480" height="512" viewBox="0 0 480 480" width="512" xmlns="http://www.w3.org/2000/svg"><g fill="#444"><path d="m472 88h-120v-48c0-22.056-17.944-40-40-40h-144c-22.056 0-40 17.944-40 40v48h-120c-4.424 0-8 3.584-8 8v104 240c0 22.056 17.944 40 40 40h400c22.056 0 40-17.944 40-40v-240-104c0-4.416-3.576-8-8-8zm-328-48c0-13.232 10.768-24 24-24h144c13.232 0 24 10.768 24 24v48h-16v-48c0-4.416-3.576-8-8-8h-144c-4.424 0-8 3.584-8 8v48h-16zm160 8v40h-128v-40zm-168 320v96h-32v-96c0-2.376-1.056-4.624-2.872-6.144l-45.128-37.6v-40.416l24-19.2v39.36c0 2.52 1.184 4.888 3.2 6.4l32 24c2.84 2.136 6.752 2.136 9.592 0l32-24c2.016-1.504 3.2-3.88 3.2-6.4v-39.352l24 19.2v40.408l-45.128 37.6c-1.808 1.52-2.864 3.768-2.864 6.144zm168 96h-80v-16h80zm-50.344-141.656-12.672-12.672 13.048-45.672h19.936l13.048 45.672-12.672 12.672c-1.504 1.496-2.344 3.536-2.344 5.656v104h-16v-104c0-2.12-.84-4.16-2.344-5.656zm162.344 141.656h-24v-16h-16v16h-24v-12.688l29.656-29.656c1.56-1.56 2.344-3.608 2.344-5.656 0 2.048.784 4.096 2.344 5.656l29.656 29.656zm-40-59.312-24-24v-65.376l19.312-19.312h4.688zm88 35.312c0 13.232-10.768 24-24 24h-8v-16c0-2.12-.84-4.16-2.344-5.656l-26.344-26.344 26.344-26.344c1.504-1.496 2.344-3.536 2.344-5.656v-72c0-2.12-.84-4.16-2.344-5.656l-24-24c-1.496-1.504-3.528-2.344-5.656-2.344h-16-16c-2.128 0-4.16.84-5.656 2.344l-24 24c-1.504 1.496-2.344 3.536-2.344 5.656v72c0 2.12.84 4.16 2.344 5.656l26.344 26.344-26.344 26.344c-1.504 1.496-2.344 3.536-2.344 5.656v16h-16v-24c0-4.416-3.576-8-8-8h-24v-100.688l13.656-13.656c2.056-2.056 2.832-5.056 2.04-7.856l-16-56c-.984-3.432-4.128-5.8-7.696-5.8h-32c-3.568 0-6.712 2.368-7.696 5.8l-16 56c-.8 2.8-.016 5.8 2.04 7.856l13.656 13.656v100.688h-24c-4.424 0-8 3.584-8 8v24h-56v-92.256l45.128-37.6c1.816-1.52 2.872-3.768 2.872-6.144v-48c0-2.432-1.104-4.728-3-6.248l-40-32c-2.408-1.92-5.704-2.288-8.472-.968-2.76 1.336-4.528 4.144-4.528 7.216v52l-24 18-24-18v-52c0-3.072-1.768-5.88-4.528-7.208-2.784-1.32-6.064-.96-8.472.968l-40 32c-1.896 1.512-3 3.808-3 6.24v48c0 2.376 1.056 4.624 2.872 6.144l45.128 37.6v92.256h-48c-13.232 0-24-10.768-24-24v-232h448zm-72-35.312v-108.688h4.688l19.312 19.312v65.376zm72-212.688h-448v-88h120 32 144 32 120z"/><path d="m200 152h16v16h-16z"/><path d="m232 152h16v16h-16z"/><path d="m264 152h16v16h-16z"/></g></svg>